# This file uses centimeters as units for non-parametric coordinates.

mtllib SkyBox.mtl
g default
v -60.252606 -53.741168 60.252606
v 60.252606 -53.741168 60.252606
v -60.252606 66.764044 60.252606
v 60.252606 66.764044 60.252606
v -60.252606 66.764044 -60.252606
v 60.252606 66.764044 -60.252606
v -60.252606 -53.741168 -60.252606
v 60.252606 -53.741168 -60.252606
v -60.252606 66.764044 -60.252606
v 60.252606 66.764044 -60.252606
v -60.252606 -53.741168 -60.252606
v 60.252606 -53.741168 -60.252606
vt 0.503648 -0.156273
vt 0.891053 -0.156273
vt 0.503648 0.231131
vt 0.891053 0.231131
vt 0.115591 0.232606
vt -0.271810 0.234355
vt 0.113842 -0.154794
vt -0.273559 -0.153045
vt 0.116244 0.231131
vt 1.278457 0.231131
vt 0.116244 -0.156273
vt 1.278457 -0.156273
vn 0.000000 0.000000 -1.000000
vn 0.000000 0.000000 -1.000000
vn 0.000000 0.000000 -1.000000
vn 0.000000 0.000000 -1.000000
vn 0.000000 0.000000 1.000000
vn 0.000000 0.000000 1.000000
vn 0.000000 0.000000 1.000000
vn 0.000000 0.000000 1.000000
vn -1.000000 0.000000 0.000000
vn -1.000000 0.000000 0.000000
vn -1.000000 0.000000 0.000000
vn -1.000000 0.000000 0.000000
vn 1.000000 0.000000 0.000000
vn 1.000000 0.000000 0.000000
vn 1.000000 0.000000 0.000000
vn 1.000000 0.000000 0.000000
s off
g pasted__pasted__pCube1 pasted__group5 group1
usemtl pasted__pasted__lambert2SG5
f 1/1/1 3/3/2 4/4/3 2/2/4
f 5/5/5 7/7/6 8/8/7 6/6/8
f 2/2/9 4/4/10 10/10/11 12/12/12
f 11/11/13 9/9/14 3/3/15 1/1/16
