# This file uses centimeters as units for non-parametric coordinates.

mtllib Techo1.mtl
g default
v -14.750359 8.317841 -9.238201
v -14.750359 8.317841 8.951451
v -14.750359 8.631338 -9.238201
v -14.750359 8.631338 8.951451
v 9.555700 8.631338 -9.238201
v 9.555700 8.631338 8.951451
v 9.555700 8.317841 -9.238201
v 9.555700 8.317841 8.951451
vt 0.013821 0.006179
vt 5.347105 -0.028424
vt 5.349022 5.292249
vt -0.050424 5.341560
vn -1.000000 0.000000 0.000000
vn -1.000000 0.000000 0.000000
vn -1.000000 0.000000 0.000000
vn -1.000000 0.000000 0.000000
vn -0.000000 1.000000 0.000000
vn -0.000000 1.000000 0.000000
vn -0.000000 1.000000 0.000000
vn -0.000000 1.000000 0.000000
vn 1.000000 0.000000 0.000000
vn 1.000000 0.000000 0.000000
vn 1.000000 0.000000 0.000000
vn 1.000000 0.000000 0.000000
vn 0.000000 -1.000000 0.000000
vn 0.000000 -1.000000 0.000000
vn 0.000000 -1.000000 0.000000
vn 0.000000 -1.000000 0.000000
vn 0.000000 0.000000 1.000000
vn 0.000000 0.000000 1.000000
vn 0.000000 0.000000 1.000000
vn 0.000000 0.000000 1.000000
vn -0.000000 0.000000 -1.000000
vn -0.000000 0.000000 -1.000000
vn -0.000000 0.000000 -1.000000
vn -0.000000 0.000000 -1.000000
s off
g pasted__pCube37 group1
usemtl pasted__lambert4SG4
f 1//1 2//2 4//3 3//4
f 3//5 4//6 6//7 5//8
f 5//9 6//10 8//11 7//12
usemtl pasted__lambert9SG1
f 7/1/13 8/2/14 2/3/15 1/4/16
usemtl pasted__lambert4SG4
f 2//17 8//18 6//19 4//20
f 7//21 1//22 3//23 5//24
