# This file uses centimeters as units for non-parametric coordinates.

mtllib Pasillo.mtl
g default
v -14.805730 1.449212 -11.491086
v -14.805730 1.449212 10.413440
v -14.805730 1.762209 -11.491086
v -14.805730 1.762209 10.413440
v 9.531632 1.762209 -11.491086
v 9.531632 1.762209 10.413440
v 9.531632 1.449212 -11.491086
v 9.531632 1.449212 10.413440
vt -0.462747 -5.277213
vt 3.162458 -5.277213
vt 3.162458 -1.652007
vt -0.462747 -1.652007
vt 3.162458 1.973199
vt -0.462747 1.973199
vt 3.162458 5.598405
vt -0.462747 5.598405
vt 3.162458 9.223610
vt -0.462747 9.223610
vt 6.787663 -5.277213
vt 6.787663 -1.652007
vt -4.087953 -5.277213
vt -4.087953 -1.652007
vn -1.000000 0.000000 0.000000
vn -1.000000 0.000000 0.000000
vn -1.000000 0.000000 0.000000
vn -1.000000 0.000000 0.000000
vn 0.000000 1.000000 0.000000
vn 0.000000 1.000000 0.000000
vn 0.000000 1.000000 0.000000
vn 0.000000 1.000000 0.000000
vn 1.000000 0.000000 0.000000
vn 1.000000 0.000000 0.000000
vn 1.000000 0.000000 0.000000
vn 1.000000 0.000000 0.000000
vn 0.000000 -1.000000 0.000000
vn 0.000000 -1.000000 0.000000
vn 0.000000 -1.000000 0.000000
vn 0.000000 -1.000000 0.000000
vn 0.000000 0.000000 1.000000
vn 0.000000 0.000000 1.000000
vn 0.000000 0.000000 1.000000
vn 0.000000 0.000000 1.000000
vn -0.000000 0.000000 -1.000000
vn -0.000000 0.000000 -1.000000
vn -0.000000 0.000000 -1.000000
vn -0.000000 0.000000 -1.000000
s off
g pasted__pCube36 group
usemtl pasted__phong3SG
f 1/1/1 2/2/2 4/3/3 3/4/4
f 3/4/5 4/3/6 6/5/7 5/6/8
f 5/6/9 6/5/10 8/7/11 7/8/12
f 7/8/13 8/7/14 2/9/15 1/10/16
f 2/2/17 8/11/18 6/12/19 4/3/20
f 7/13/21 1/1/22 3/4/23 5/14/24
g default
v 9.643479 1.528762 5.971171
v 0.644360 1.528762 5.971171
v 9.643479 1.528762 5.769670
v 0.644360 1.528762 5.769670
v 9.643479 8.223071 5.769670
v 0.644360 8.223071 5.769670
v 9.643479 8.223071 5.971171
v 0.644360 8.223071 5.971171
vt 1.157771 0.002457
vt 0.138415 0.002457
vt 1.157771 1.021814
vt 0.138415 1.021814
vn 0.000000 -1.000000 0.000000
vn 0.000000 -1.000000 0.000000
vn 0.000000 -1.000000 0.000000
vn 0.000000 -1.000000 0.000000
vn 0.000000 0.000000 -1.000000
vn 0.000000 0.000000 -1.000000
vn 0.000000 0.000000 -1.000000
vn 0.000000 0.000000 -1.000000
vn 0.000000 1.000000 -0.000000
vn 0.000000 1.000000 -0.000000
vn 0.000000 1.000000 -0.000000
vn 0.000000 1.000000 -0.000000
vn -0.000000 0.000000 1.000000
vn -0.000000 0.000000 1.000000
vn -0.000000 0.000000 1.000000
vn -0.000000 0.000000 1.000000
vn -1.000000 0.000000 -0.000000
vn -1.000000 0.000000 -0.000000
vn -1.000000 0.000000 -0.000000
vn -1.000000 0.000000 -0.000000
vn 1.000000 0.000000 0.000000
vn 1.000000 0.000000 0.000000
vn 1.000000 0.000000 0.000000
vn 1.000000 0.000000 0.000000
s off
g group pasted__pCube39
usemtl pasted__lambert4SG
f 9//25 10//26 12//27 11//28
usemtl pasted__lambert10SG
f 11/16/29 12/15/30 14/17/31 13/18/32
usemtl pasted__lambert4SG
f 13//33 14//34 16//35 15//36
f 15//37 16//38 10//39 9//40
f 10//41 16//42 14//43 12//44
f 15//45 9//46 11//47 13//48
g default
v 0.768793 1.641833 -5.658338
v 9.648361 1.641833 -5.658338
v 0.768793 1.641833 -5.456882
v 9.648361 1.641833 -5.456882
v 0.768793 8.220082 -5.456882
v 9.648361 8.220082 -5.456882
v 0.768793 8.220082 -5.658338
v 9.648361 8.220082 -5.658338
vt 1.157771 0.002457
vt 0.138415 0.002457
vt 1.157771 1.021814
vt 0.138415 1.021814
vn 0.000000 -1.000000 0.000000
vn 0.000000 -1.000000 0.000000
vn 0.000000 -1.000000 0.000000
vn 0.000000 -1.000000 0.000000
vn 0.000000 0.000000 1.000000
vn 0.000000 0.000000 1.000000
vn 0.000000 0.000000 1.000000
vn 0.000000 0.000000 1.000000
vn 0.000000 1.000000 0.000000
vn 0.000000 1.000000 0.000000
vn 0.000000 1.000000 0.000000
vn 0.000000 1.000000 0.000000
vn 0.000000 0.000000 -1.000000
vn 0.000000 0.000000 -1.000000
vn 0.000000 0.000000 -1.000000
vn 0.000000 0.000000 -1.000000
vn 1.000000 0.000000 0.000000
vn 1.000000 0.000000 0.000000
vn 1.000000 0.000000 0.000000
vn 1.000000 0.000000 0.000000
vn -1.000000 0.000000 0.000000
vn -1.000000 0.000000 0.000000
vn -1.000000 0.000000 0.000000
vn -1.000000 0.000000 0.000000
s off
g group pasted__pCube25
usemtl pasted__lambert4SG
f 17//49 18//50 20//51 19//52
usemtl pasted__lambert10SG
f 19/20/53 20/19/54 22/21/55 21/22/56
usemtl pasted__lambert4SG
f 21//57 22//58 24//59 23//60
f 23//61 24//62 18//63 17//64
f 18//65 24//66 22//67 20//68
f 23//69 17//70 19//71 21//72
