# This file uses centimeters as units for non-parametric coordinates.

mtllib VentanasFalsas.mtl
v -14.712106 12.203619 -10.950361
v -14.712106 12.203619 9.046063
v -14.712106 -2.028506 -10.950361
v -14.712106 -2.028506 9.046063
vt 0.997402 1.001757
vt 0.000040 1.001911
vt -0.001530 0.162108
vt 0.998414 0.159673
vn 1.000000 0.000000 0.000000
vn 1.000000 0.000000 0.000000
vn 1.000000 0.000000 0.000000
vn 1.000000 0.000000 0.000000
s off
usemtl pasted__VentanasFalsas_pasted__pasted__pasted__lambert2SG
f 1/1/1 2/2/2 4/3/3 3/4/4
v 0.714082 8.063004 -7.656103
v -18.854204 8.063004 -7.656103
v 0.714082 -5.864401 -7.656103
v -18.854204 -5.864401 -7.656103
vt 0.997402 1.001757
vt 0.000040 1.001911
vt -0.001530 0.162108
vt 0.998414 0.159673
vn 0.000000 0.000000 1.000000
vn 0.000000 0.000000 1.000000
vn 0.000000 0.000000 1.000000
vn 0.000000 0.000000 1.000000
s off
usemtl pasted__VentanasFalsas_pasted__VentanaLat_pasted__lambert2SG
f 5/5/5 6/6/6 8/7/7 7/8/8
