# This file uses centimeters as units for non-parametric coordinates.

mtllib PuertaIzq.mtl
g default
v 9.553372 3.495673 0.867919
v 9.553372 3.236769 0.632394
v 9.693395 3.236770 0.867919
v 9.553372 2.977866 0.867919
v 9.553372 3.236770 1.103446
v 9.553372 4.203437 0.867919
v 9.553372 3.944533 0.632394
v 9.693395 3.944533 0.867919
v 9.553372 3.685628 0.867919
v 9.553372 3.944533 1.103446
v 9.584710 4.739914 1.780353
v 9.584714 5.980639 0.216930
v 9.584714 1.701725 0.216930
v 9.584710 1.701726 1.780353
v 9.584714 5.936217 0.582101
v 9.584710 5.010912 1.736950
v 9.584714 5.802836 1.013517
v 9.584714 5.269752 1.627308
v 9.584714 5.658121 1.261398
v 9.584714 5.478121 1.468649
v 9.553372 4.911207 0.867919
v 9.553372 4.652302 0.632394
v 9.693395 4.652303 0.867919
v 9.553372 4.393399 0.867919
v 9.553372 4.652303 1.103446
v 9.553372 2.794073 0.867919
v 9.553372 2.535168 0.632394
v 9.693395 2.535168 0.867919
v 9.553372 2.276264 0.867919
v 9.553372 2.535169 1.103446
v 9.553372 5.621334 0.867919
v 9.553372 5.362430 0.632394
v 9.693395 5.362430 0.867919
v 9.553372 5.103526 0.867919
v 9.553372 5.362430 1.103446
vt 0.915039 0.758789
vt 0.896973 0.758789
vt 0.915039 0.776855
vt 0.915039 0.741211
vt 0.932617 0.758789
vt 0.915039 0.758789
vt 0.896973 0.758789
vt 0.915039 0.776855
vt 0.915039 0.741211
vt 0.932617 0.758789
vt 0.648438 0.504395
vt 0.648438 0.806152
vt 0.761230 0.718750
vt 0.761230 0.504395
vt 0.674805 0.803223
vt 0.757812 0.737793
vt 0.706055 0.793457
vt 0.750000 0.755859
vt 0.723633 0.783691
vt 0.738770 0.770996
vt 0.915039 0.758789
vt 0.896973 0.758789
vt 0.915039 0.776855
vt 0.915039 0.741211
vt 0.932617 0.758789
vt 0.915039 0.758789
vt 0.896973 0.758789
vt 0.915039 0.776855
vt 0.915039 0.741211
vt 0.932617 0.758789
vt 0.915039 0.758789
vt 0.896973 0.758789
vt 0.915039 0.776855
vt 0.915039 0.741211
vt 0.932617 0.758789
vn 1.000000 -0.000000 -0.000002
vn 0.859568 -0.000000 -0.511022
vn 0.879602 0.475711 -0.000001
vn 1.000000 -0.000000 -0.000002
vn 0.879602 -0.475711 -0.000001
vn 0.859568 -0.000000 -0.511022
vn 1.000000 -0.000000 -0.000002
vn 0.859570 -0.000000 0.511018
vn 0.879602 -0.475711 -0.000001
vn 1.000000 -0.000000 -0.000002
vn 0.879602 0.475711 -0.000001
vn 0.859570 -0.000000 0.511018
vn 1.000000 -0.000000 -0.000002
vn 0.859568 -0.000000 -0.511022
vn 0.879602 0.475711 -0.000001
vn 1.000000 -0.000000 -0.000002
vn 0.879602 -0.475711 -0.000001
vn 0.859568 -0.000000 -0.511022
vn 1.000000 -0.000000 -0.000002
vn 0.859570 -0.000000 0.511018
vn 0.879602 -0.475711 -0.000001
vn 1.000000 -0.000000 -0.000002
vn 0.879602 0.475711 -0.000001
vn 0.859570 -0.000000 0.511018
vn 1.000000 -0.000000 0.000001
vn 1.000000 -0.000001 0.000001
vn 1.000000 -0.000000 0.000001
vn 1.000000 -0.000000 0.000001
vn 1.000000 -0.000000 0.000001
vn 1.000000 -0.000000 0.000001
vn 1.000000 -0.000001 0.000001
vn 1.000000 -0.000001 0.000000
vn 1.000000 -0.000000 0.000001
vn 1.000000 -0.000001 0.000000
vn 1.000000 -0.000001 0.000000
vn 1.000000 -0.000000 0.000001
vn 1.000000 -0.000001 0.000000
vn 1.000000 -0.000002 -0.000001
vn 1.000000 -0.000001 0.000000
vn 1.000000 -0.000002 -0.000001
vn 1.000000 -0.000007 -0.000006
vn 1.000000 -0.000001 0.000000
vn 1.000000 -0.000002 -0.000001
vn 1.000000 -0.000000 0.000000
vn 1.000000 -0.000007 -0.000006
vn 1.000000 -0.000000 0.000000
vn 1.000000 -0.000000 0.000000
vn 1.000000 -0.000007 -0.000006
vn 1.000000 0.000001 -0.000002
vn 0.859568 -0.000001 -0.511022
vn 0.879602 0.475711 -0.000001
vn 1.000000 0.000001 -0.000002
vn 0.879602 -0.475711 -0.000001
vn 0.859568 -0.000001 -0.511022
vn 1.000000 0.000001 -0.000002
vn 0.859570 -0.000000 0.511018
vn 0.879602 -0.475711 -0.000001
vn 1.000000 0.000001 -0.000002
vn 0.879602 0.475711 -0.000001
vn 0.859570 -0.000000 0.511018
vn 1.000000 -0.000000 -0.000002
vn 0.859568 -0.000000 -0.511022
vn 0.879602 0.475711 -0.000001
vn 1.000000 -0.000000 -0.000002
vn 0.879602 -0.475711 -0.000001
vn 0.859568 -0.000000 -0.511022
vn 1.000000 -0.000000 -0.000002
vn 0.859570 -0.000000 0.511018
vn 0.879602 -0.475711 -0.000001
vn 1.000000 -0.000000 -0.000002
vn 0.879602 0.475711 -0.000001
vn 0.859570 -0.000000 0.511018
vn 1.000000 -0.000000 -0.000002
vn 0.859568 -0.000000 -0.511022
vn 0.879601 0.475712 -0.000001
vn 1.000000 -0.000000 -0.000002
vn 0.879601 -0.475712 -0.000001
vn 0.859568 -0.000000 -0.511022
vn 1.000000 -0.000000 -0.000002
vn 0.859570 -0.000000 0.511018
vn 0.879601 -0.475712 -0.000001
vn 1.000000 -0.000000 -0.000002
vn 0.879601 0.475712 -0.000001
vn 0.859570 -0.000000 0.511018
s off
g pasted__polySurface192 group
usemtl pasted__FavHQ1_lambert7SG
f 3/1/1 2/2/2 1/3/3
f 3/1/4 4/4/5 2/2/6
f 3/1/7 5/5/8 4/4/9
f 3/1/10 1/3/11 5/5/12
f 8/6/13 7/7/14 6/8/15
f 8/6/16 9/9/17 7/7/18
f 8/6/19 10/10/20 9/9/21
f 8/6/22 6/8/23 10/10/24
f 13/11/25 12/12/26 11/13/27
f 14/14/28 13/11/29 11/13/30
f 12/12/31 15/15/32 11/13/33
f 15/15/34 16/16/35 11/13/36
f 15/15/37 17/17/38 16/16/39
f 17/17/40 18/18/41 16/16/42
f 17/17/43 19/19/44 18/18/45
f 19/19/46 20/20/47 18/18/48
f 23/21/49 22/22/50 21/23/51
f 23/21/52 24/24/53 22/22/54
f 23/21/55 25/25/56 24/24/57
f 23/21/58 21/23/59 25/25/60
f 28/26/61 27/27/62 26/28/63
f 28/26/64 29/29/65 27/27/66
f 28/26/67 30/30/68 29/29/69
f 28/26/70 26/28/71 30/30/72
f 33/31/73 32/32/74 31/33/75
f 33/31/76 34/34/77 32/32/78
f 33/31/79 35/35/80 34/34/81
f 33/31/82 31/33/83 35/35/84
