# This file uses centimeters as units for non-parametric coordinates.

mtllib PuertaDer.mtl
g default
v 9.553376 2.794072 -0.434059
v 9.693399 2.535168 -0.434059
v 9.553376 2.535168 -0.198534
v 9.553376 2.276264 -0.434059
v 9.553376 2.535168 -0.669586
v 9.584714 4.739913 -1.346495
v 9.584714 1.701725 -1.346493
v 9.584714 1.701725 0.216930
v 9.584714 5.980639 0.216930
v 9.584714 5.936216 -0.148243
v 9.584714 5.010911 -1.303092
v 9.584714 5.802835 -0.579659
v 9.584714 5.269751 -1.193448
v 9.584714 5.658121 -0.827538
v 9.584714 5.478121 -1.034789
v 9.553376 4.203436 -0.434059
v 9.693397 3.944532 -0.434059
v 9.553376 3.944532 -0.198534
v 9.553376 3.685628 -0.434059
v 9.553376 3.944532 -0.669586
v 9.553376 3.495673 -0.434059
v 9.693397 3.236769 -0.434059
v 9.553376 3.236769 -0.198534
v 9.553376 2.977865 -0.434059
v 9.553376 3.236769 -0.669586
v 9.553376 5.621334 -0.434059
v 9.693397 5.362429 -0.434059
v 9.553376 5.362430 -0.198534
v 9.553376 5.103526 -0.434059
v 9.553376 5.362429 -0.669586
v 9.553376 4.911206 -0.434059
v 9.693397 4.652302 -0.434059
v 9.553376 4.652302 -0.198534
v 9.553376 4.393398 -0.434059
v 9.553376 4.652302 -0.669586
vt 0.896973 0.758789
vt 0.915039 0.758789
vt 0.915039 0.776855
vt 0.915039 0.741211
vt 0.932617 0.758789
vt 0.648438 0.504395
vt 0.761230 0.504395
vt 0.761230 0.718750
vt 0.648438 0.806152
vt 0.674805 0.803223
vt 0.757812 0.737793
vt 0.706055 0.793457
vt 0.750000 0.755859
vt 0.723633 0.783691
vt 0.738770 0.770996
vt 0.896973 0.758789
vt 0.915039 0.758789
vt 0.915039 0.776855
vt 0.915039 0.741211
vt 0.932617 0.758789
vt 0.896973 0.758789
vt 0.915039 0.758789
vt 0.915039 0.776855
vt 0.915039 0.741211
vt 0.932617 0.758789
vt 0.896973 0.758789
vt 0.915039 0.758789
vt 0.915039 0.776855
vt 0.915039 0.741211
vt 0.932617 0.758789
vt 0.896973 0.758789
vt 0.915039 0.758789
vt 0.915039 0.776855
vt 0.915039 0.741211
vt 0.932617 0.758789
vn 0.859568 -0.000000 0.511022
vn 1.000000 -0.000000 0.000002
vn 0.879602 0.475711 0.000001
vn 0.879602 -0.475711 0.000001
vn 1.000000 -0.000000 0.000002
vn 0.859568 -0.000000 0.511022
vn 0.859570 -0.000000 -0.511018
vn 1.000000 -0.000000 0.000002
vn 0.879602 -0.475711 0.000001
vn 0.879602 0.475711 0.000001
vn 1.000000 -0.000000 0.000002
vn 0.859570 -0.000000 -0.511018
vn 1.000000 -0.000000 0.000001
vn 1.000000 -0.000000 0.000000
vn 1.000000 -0.000000 0.000001
vn 1.000000 -0.000001 0.000001
vn 1.000000 -0.000000 0.000001
vn 1.000000 -0.000000 0.000001
vn 1.000000 -0.000003 0.000003
vn 1.000000 -0.000001 0.000001
vn 1.000000 -0.000000 0.000001
vn 1.000000 -0.000000 0.000000
vn 1.000000 -0.000003 0.000003
vn 1.000000 -0.000000 0.000001
vn 1.000000 -0.000000 0.000000
vn 1.000000 -0.000003 0.000003
vn 1.000000 -0.000000 0.000000
vn 1.000000 -0.000000 0.000000
vn 1.000000 -0.000000 0.000000
vn 1.000000 -0.000000 0.000000
vn 1.000000 -0.000000 0.000000
vn 1.000000 -0.000000 0.000000
vn 1.000000 -0.000000 0.000000
vn 1.000000 -0.000000 0.000000
vn 1.000000 -0.000000 0.000000
vn 1.000000 -0.000000 0.000000
vn 0.859568 -0.000002 0.511022
vn 1.000000 -0.000001 0.000004
vn 0.879603 0.475708 0.000003
vn 0.879602 -0.475711 0.000003
vn 1.000000 -0.000001 0.000004
vn 0.859568 -0.000002 0.511022
vn 0.859572 -0.000002 -0.511015
vn 1.000000 -0.000001 0.000004
vn 0.879602 -0.475711 0.000003
vn 0.879603 0.475708 0.000003
vn 1.000000 -0.000001 0.000004
vn 0.859572 -0.000002 -0.511015
vn 0.859568 -0.000000 0.511022
vn 1.000000 -0.000000 0.000002
vn 0.879601 0.475712 0.000001
vn 0.879602 -0.475711 0.000001
vn 1.000000 -0.000000 0.000002
vn 0.859568 -0.000000 0.511022
vn 0.859570 -0.000000 -0.511018
vn 1.000000 -0.000000 0.000002
vn 0.879602 -0.475711 0.000001
vn 0.879601 0.475712 0.000001
vn 1.000000 -0.000000 0.000002
vn 0.859570 -0.000000 -0.511018
vn 0.859570 0.000001 0.511019
vn 1.000000 -0.000001 0.000002
vn 0.879604 0.475707 0.000001
vn 0.879603 -0.475708 0.000001
vn 1.000000 -0.000001 0.000002
vn 0.859570 0.000001 0.511019
vn 0.859572 -0.000000 -0.511015
vn 1.000000 -0.000001 0.000002
vn 0.879603 -0.475708 0.000001
vn 0.879604 0.475707 0.000001
vn 1.000000 -0.000001 0.000002
vn 0.859572 -0.000000 -0.511015
vn 0.859568 -0.000000 0.511022
vn 1.000000 -0.000000 0.000004
vn 0.879603 0.475708 0.000003
vn 0.879604 -0.475707 0.000003
vn 1.000000 -0.000000 0.000004
vn 0.859568 -0.000000 0.511022
vn 0.859572 -0.000000 -0.511015
vn 1.000000 -0.000000 0.000004
vn 0.879604 -0.475707 0.000003
vn 0.879603 0.475708 0.000003
vn 1.000000 -0.000000 0.000004
vn 0.859572 -0.000000 -0.511015
s off
g pasted__polySurface184 group
usemtl pasted__FavHQ1_lambert7SG
f 3/1/1 2/2/2 1/3/3
f 4/4/4 2/2/5 3/1/6
f 5/5/7 2/2/8 4/4/9
f 1/3/10 2/2/11 5/5/12
f 8/6/13 7/7/14 6/8/15
f 9/9/16 8/6/17 6/8/18
f 10/10/19 9/9/20 6/8/21
f 11/11/22 10/10/23 6/8/24
f 12/12/25 10/10/26 11/11/27
f 13/13/28 12/12/29 11/11/30
f 14/14/31 12/12/32 13/13/33
f 15/15/34 14/14/35 13/13/36
f 18/16/37 17/17/38 16/18/39
f 19/19/40 17/17/41 18/16/42
f 20/20/43 17/17/44 19/19/45
f 16/18/46 17/17/47 20/20/48
f 23/21/49 22/22/50 21/23/51
f 24/24/52 22/22/53 23/21/54
f 25/25/55 22/22/56 24/24/57
f 21/23/58 22/22/59 25/25/60
f 28/26/61 27/27/62 26/28/63
f 29/29/64 27/27/65 28/26/66
f 30/30/67 27/27/68 29/29/69
f 26/28/70 27/27/71 30/30/72
f 33/31/73 32/32/74 31/33/75
f 34/34/76 32/32/77 33/31/78
f 35/35/79 32/32/80 34/34/81
f 31/33/82 32/32/83 35/35/84
