# This file uses centimeters as units for non-parametric coordinates.

mtllib Mantel.mtl
g default
v -0.024453 2.694398 0.325640
v -0.064012 2.694398 0.386953
v -0.142673 2.694398 0.349617
v -0.140134 2.694398 0.006915
v 0.176073 2.694398 0.127298
v 0.111398 2.694398 0.326646
v -0.143225 2.694398 0.424169
v 0.201738 2.694398 0.009447
v 0.237872 2.694398 0.088651
v 0.276108 2.694398 0.009998
v 0.175061 2.694398 0.263919
v 0.155501 2.694398 0.307689
v -0.260524 2.694398 0.323892
v -0.142673 2.694398 0.349617
v -0.221877 2.694398 0.385784
v -0.140134 2.694398 0.006915
v -0.458089 2.694398 0.122601
v -0.396374 2.694398 0.322886
v -0.143225 2.694398 0.424169
v -0.482007 2.694398 0.004383
v -0.519310 2.694398 0.083044
v -0.556378 2.694398 0.003832
v -0.459101 2.694398 0.259222
v -0.440190 2.694398 0.303278
v -0.255816 2.694398 -0.311812
v -0.216256 2.694398 -0.373124
v -0.137596 2.694398 -0.335788
v -0.140134 2.694398 0.006915
v -0.456341 2.694398 -0.113469
v -0.391666 2.694398 -0.312818
v -0.137044 2.694398 -0.410340
v -0.482007 2.694398 0.004383
v -0.518141 2.694398 -0.074822
v -0.556378 2.694398 0.003832
v -0.455329 2.694398 -0.250091
v -0.435768 2.694398 -0.293861
v -0.019745 2.694398 -0.310063
v -0.137596 2.694398 -0.335788
v -0.058391 2.694398 -0.371955
v -0.140134 2.694398 0.006915
v 0.177821 2.694398 -0.108773
v 0.116106 2.694398 -0.309057
v -0.137044 2.694398 -0.410340
v 0.201738 2.694398 0.009447
v 0.239041 2.694398 -0.069214
v 0.276108 2.694398 0.009998
v 0.178833 2.694398 -0.245394
v 0.159923 2.694398 -0.289449
vt 0.105675 0.544143
vt 0.176312 0.577323
vt 0.211359 0.522576
vt 0.105675 0.238887
vt 0.389494 0.344233
vt 0.332880 0.522576
vt 0.105675 0.611332
vt 0.411683 0.238887
vt 0.444448 0.309394
vt 0.478250 0.238887
vt 0.389494 0.466170
vt 0.372281 0.505156
vt 0.176312 0.577323
vt 0.105675 0.544143
vt 0.211359 0.522576
vt 0.105675 0.238887
vt 0.389494 0.344233
vt 0.332880 0.522576
vt 0.105675 0.611332
vt 0.411683 0.238887
vt 0.444448 0.309394
vt 0.478250 0.238887
vt 0.389494 0.466170
vt 0.372281 0.505156
vt 0.105675 0.544143
vt 0.176312 0.577323
vt 0.211359 0.522576
vt 0.105675 0.238887
vt 0.389494 0.344233
vt 0.332880 0.522576
vt 0.105675 0.611332
vt 0.411683 0.238887
vt 0.444448 0.309394
vt 0.478250 0.238887
vt 0.389494 0.466170
vt 0.372281 0.505156
vt 0.176312 0.577323
vt 0.105675 0.544143
vt 0.211359 0.522576
vt 0.105675 0.238887
vt 0.389494 0.344233
vt 0.332880 0.522576
vt 0.105675 0.611332
vt 0.411683 0.238887
vt 0.444448 0.309394
vt 0.478250 0.238887
vt 0.389494 0.466170
vt 0.372281 0.505156
vn 0.000000 1.000000 0.000000
vn 0.000000 1.000000 0.000000
vn 0.000000 1.000000 0.000000
vn 0.000000 1.000000 0.000000
vn 0.000000 1.000000 0.000000
vn 0.000000 1.000000 0.000000
vn 0.000000 1.000000 0.000000
vn 0.000000 1.000000 0.000000
vn 0.000000 1.000000 0.000000
vn 0.000000 1.000000 0.000000
vn 0.000000 1.000000 0.000000
vn 0.000000 1.000000 0.000000
vn 0.000000 1.000000 0.000000
vn 0.000000 1.000000 0.000000
vn 0.000000 1.000000 0.000000
vn 0.000000 1.000000 0.000000
vn 0.000000 1.000000 0.000000
vn 0.000000 1.000000 -0.000001
vn 0.000000 1.000000 0.000000
vn 0.000000 1.000000 0.000000
vn 0.000000 1.000000 -0.000001
vn 0.000000 1.000000 -0.000001
vn 0.000000 1.000000 0.000000
vn 0.000000 1.000000 -0.000001
vn 0.000000 1.000000 0.000000
vn 0.000000 1.000000 0.000000
vn 0.000000 1.000000 0.000000
vn 0.000000 1.000000 0.000000
vn 0.000000 1.000000 0.000000
vn 0.000000 1.000000 0.000000
vn 0.000000 1.000000 0.000000
vn 0.000000 1.000000 0.000000
vn 0.000000 1.000000 0.000000
vn 0.000000 1.000000 0.000000
vn 0.000000 1.000000 0.000000
vn 0.000000 1.000000 0.000000
vn 0.000000 1.000000 0.000000
vn 0.000000 1.000000 0.000000
vn 0.000000 1.000000 0.000000
vn 0.000000 1.000000 0.000000
vn 0.000000 1.000000 0.000000
vn 0.000000 1.000000 0.000000
vn 0.000000 1.000000 0.000000
vn 0.000000 1.000000 0.000000
vn 0.000000 1.000000 0.000000
vn 0.000000 1.000000 0.000000
vn 0.000000 1.000000 0.000000
vn 0.000000 1.000000 -0.000001
vn 0.000000 1.000000 0.000000
vn 0.000000 1.000000 0.000000
vn 0.000000 1.000000 -0.000001
vn 0.000000 1.000000 0.000000
vn 0.000000 1.000000 -0.000001
vn 0.000000 1.000000 -0.000001
vn 0.000000 1.000000 0.000000
vn 0.000000 1.000000 0.000000
vn 0.000000 1.000000 0.000000
vn 0.000000 1.000000 0.000000
vn 0.000000 1.000000 0.000000
vn 0.000000 1.000000 0.000000
vn 0.000000 1.000000 0.000000
vn 0.000000 1.000000 0.000000
vn 0.000000 1.000000 0.000000
vn 0.000000 1.000000 0.000000
vn 0.000000 1.000000 0.000000
vn 0.000000 1.000000 0.000000
vn 0.000000 1.000000 0.000000
vn 0.000000 1.000000 -0.000001
vn 0.000000 1.000000 0.000000
vn 0.000000 1.000000 0.000000
vn 0.000000 1.000000 0.000000
vn 0.000000 1.000000 -0.000001
vn 0.000000 1.000000 0.000000
vn 0.000000 1.000000 0.000000
vn 0.000000 1.000000 0.000000
vn 0.000000 1.000000 0.000000
vn 0.000000 1.000000 -0.000001
vn 0.000000 1.000000 -0.000001
vn 0.000000 1.000000 -0.000001
vn -0.000001 1.000000 -0.000002
vn 0.000000 1.000000 -0.000001
vn 0.000000 1.000000 -0.000001
vn -0.000001 1.000000 -0.000002
vn 0.000000 1.000000 -0.000001
vn 0.000000 1.000000 0.000000
vn 0.000000 1.000000 0.000000
vn 0.000000 1.000000 -0.000001
vn 0.000000 1.000000 0.000000
vn 0.000000 1.000000 0.000000
vn 0.000000 1.000000 0.000000
vn 0.000000 1.000000 0.000000
vn 0.000000 1.000000 0.000000
vn 0.000000 1.000000 0.000000
vn 0.000000 1.000000 0.000000
vn 0.000000 1.000000 0.000000
vn 0.000000 1.000000 0.000000
vn 0.000000 1.000000 0.000000
vn 0.000000 1.000000 -0.000001
vn 0.000000 1.000000 0.000000
vn 0.000000 1.000000 0.000000
vn 0.000000 1.000000 0.000000
vn 0.000000 1.000000 -0.000001
vn 0.000000 1.000000 0.000000
vn 0.000000 1.000000 0.000000
vn 0.000000 1.000000 0.000000
vn 0.000000 1.000000 -0.000001
vn 0.000000 1.000000 0.000000
vn 0.000000 1.000000 -0.000001
vn 0.000001 1.000000 -0.000002
vn 0.000000 1.000000 -0.000001
vn 0.000000 1.000000 -0.000001
vn 0.000001 1.000000 -0.000002
vn 0.000000 1.000000 -0.000001
vn 0.000000 1.000000 -0.000001
vn 0.000000 1.000000 0.000000
vn 0.000000 1.000000 0.000000
vn 0.000000 1.000000 -0.000001
vn 0.000000 1.000000 0.000000
vn 0.000000 1.000000 0.000000
vn 0.000000 1.000000 0.000000
s off
g polySurface16
usemtl pasted__phong2SG
f 3/1/1 2/2/2 1/3/3
f 3/1/4 1/3/5 4/4/6
f 1/3/7 5/5/8 4/4/9
f 1/3/10 6/6/11 5/5/12
f 3/1/13 7/7/14 2/2/15
f 4/4/16 5/5/17 8/8/18
f 5/5/19 9/9/20 8/8/21
f 8/8/22 9/9/23 10/10/24
f 6/6/25 11/11/26 5/5/27
f 6/6/28 12/12/29 11/11/30
f 15/13/31 14/14/32 13/15/33
f 14/14/34 16/16/35 13/15/36
f 16/16/37 17/17/38 13/15/39
f 18/18/40 13/15/41 17/17/42
f 19/19/43 14/14/44 15/13/45
f 17/17/46 16/16/47 20/20/48
f 21/21/49 17/17/50 20/20/51
f 21/21/52 20/20/53 22/22/54
f 23/23/55 18/18/56 17/17/57
f 24/24/58 18/18/59 23/23/60
f 27/25/61 26/26/62 25/27/63
f 27/25/64 25/27/65 28/28/66
f 25/27/67 29/29/68 28/28/69
f 25/27/70 30/30/71 29/29/72
f 27/25/73 31/31/74 26/26/75
f 28/28/76 29/29/77 32/32/78
f 29/29/79 33/33/80 32/32/81
f 32/32/82 33/33/83 34/34/84
f 30/30/85 35/35/86 29/29/87
f 30/30/88 36/36/89 35/35/90
f 39/37/91 38/38/92 37/39/93
f 38/38/94 40/40/95 37/39/96
f 40/40/97 41/41/98 37/39/99
f 42/42/100 37/39/101 41/41/102
f 43/43/103 38/38/104 39/37/105
f 41/41/106 40/40/107 44/44/108
f 45/45/109 41/41/110 44/44/111
f 45/45/112 44/44/113 46/46/114
f 47/47/115 42/42/116 41/41/117
f 48/48/118 42/42/119 47/47/120
