# This file uses centimeters as units for non-parametric coordinates.

mtllib desk.mtl
g default
v -0.500000 0.614965 0.393349
v -0.500000 0.614965 -0.484653
v -0.491575 0.614965 -0.484653
v -0.491575 0.614965 0.393349
v -0.619366 0.692844 -1.418078
v -0.619366 0.692844 1.418078
v -0.619366 0.746555 1.418078
v -0.619366 0.746555 -1.418078
v 0.500000 0.614965 -1.172394
v 0.500000 0.614965 -0.662348
v 0.477891 0.614965 -0.662348
v 0.477891 0.614965 -1.172394
v 0.500000 0.158591 -0.662348
v 0.477891 0.158591 -0.662348
v -0.500000 0.158591 0.393349
v -0.491575 0.158591 0.393349
v 0.500000 0.158591 -0.484653
v 0.500000 0.614965 -0.484653
v 0.477891 0.614965 -0.484653
v 0.477891 0.158591 -0.484653
v -0.500000 0.614965 0.555216
v -0.500000 0.158591 0.555216
v -0.475541 0.158591 0.555216
v -0.475541 0.614965 0.555216
v -0.500000 0.158591 1.065262
v -0.475541 0.158591 1.065262
v 0.477891 0.246556 -0.328404
v 0.477891 0.533016 -0.328404
v 0.429061 0.533016 -0.328404
v 0.429061 0.246556 -0.328404
v 0.500000 0.158591 0.393349
v 0.477891 0.158591 0.393349
v 0.619366 -0.000846 1.418078
v 0.619366 -0.000846 -1.418078
v 0.619366 0.052865 -1.418078
v 0.619366 0.052865 1.418078
v 0.477891 0.246556 0.239200
v 0.429061 0.246556 0.239200
v -0.475541 0.614965 1.065262
v -0.619366 0.052865 1.418078
v 0.500000 0.052865 1.321732
v -0.500000 0.052865 1.321732
v -0.500000 0.052865 -1.321732
v -0.619366 0.052865 -1.418078
v 0.619366 0.746555 1.418078
v 0.619366 0.746555 -1.418078
v 0.429061 0.533016 0.239200
v -0.500000 0.614965 1.065262
v 0.477891 0.533016 0.239200
v 0.500000 0.692844 1.321732
v 0.500000 0.692844 -1.321732
v -0.500000 0.692844 -1.321732
v 0.619366 0.692844 -1.418078
v 0.619366 0.692844 1.418078
v 0.500000 0.614965 0.393349
v 0.477891 0.614965 0.393349
v 0.500000 0.158591 0.555216
v 0.500000 0.614965 0.555216
v 0.477891 0.614965 0.555216
v 0.477891 0.158591 0.555216
v -0.619366 -0.000846 1.418078
v 0.500000 0.158591 1.065262
v 0.477891 0.158591 1.065262
v 0.477891 0.614965 1.065262
v -0.500000 0.692844 1.321732
v 0.500000 0.614965 1.065262
v 0.500000 0.052865 -1.321732
v 0.500000 0.158591 -1.172394
v -0.619366 -0.000846 -1.418078
v 0.477891 0.158591 -1.172394
v -0.491575 0.158591 -0.484653
v -0.500000 0.158591 -0.484653
v -0.500000 0.158591 -0.662348
v -0.500000 0.158591 -1.172394
v -0.500000 0.614965 -0.662348
v -0.490284 0.614965 -0.662348
v -0.490284 0.158591 -0.662348
v -0.500000 0.614965 -1.172394
v -0.490284 0.614965 -1.172394
v -0.490284 0.158591 -1.172394
vt 0.590141 0.250000
vt 0.590141 0.500000
vt 0.625000 0.500000
vt 0.625000 0.250000
vt 0.125000 0.000000
vt 0.375000 0.000000
vt 0.375000 0.250000
vt 0.125000 0.250000
vt 0.466481 0.500000
vt 0.466481 0.250000
vt 0.375000 0.250000
vt 0.375000 0.500000
vt 0.466481 0.000000
vt 0.375000 0.000000
vt 0.590141 0.000000
vt 0.625000 0.000000
vt 0.466481 0.750000
vt 0.466481 0.500000
vt 0.375000 0.500000
vt 0.375000 0.750000
vt 0.523794 0.500000
vt 0.523794 0.750000
vt 0.625000 0.750000
vt 0.625000 0.500000
vt 0.523794 1.000000
vt 0.625000 1.000000
vt 0.479598 0.750000
vt 0.479598 0.500000
vt 0.375000 0.500000
vt 0.375000 0.750000
vt 0.466481 1.000000
vt 0.375000 1.000000
vt 0.625000 0.000000
vt 0.875000 0.000000
vt 0.875000 0.250000
vt 0.625000 0.250000
vt 0.479598 1.000000
vt 0.375000 1.000000
vt 0.625000 0.000000
vt 0.625000 0.250000
vt 0.875000 0.250000
vt 0.875000 0.000000
vt 0.375000 0.250000
vt 0.600910 0.258493
vt 0.399090 0.258493
vt 0.399090 0.491507
vt 0.375000 0.500000
vt 0.625000 0.250000
vt 0.625000 0.500000
vt 0.375000 0.500000
vt 0.125000 0.000000
vt 0.125000 0.250000
vt 0.375000 0.250000
vt 0.375000 0.000000
vt 0.523794 0.250000
vt 0.479598 0.250000
vt 0.600910 0.991507
vt 0.600910 0.758493
vt 0.399090 0.758493
vt 0.375000 0.750000
vt 0.625000 0.750000
vt 0.625000 1.000000
vt 0.523794 0.000000
vt 0.466481 0.250000
vt 0.375000 0.250000
vt 0.479598 0.000000
vt 0.466481 0.000000
vt 0.375000 0.000000
vt 0.625000 0.000000
vt 0.875000 0.000000
vt 0.875000 0.250000
vt 0.466481 0.750000
vt 0.466481 0.500000
vt 0.375000 0.500000
vt 0.375000 0.750000
vt 0.375000 0.000000
vt 0.466481 1.000000
vt 0.375000 1.000000
vt 0.125000 0.000000
vt 0.125000 0.250000
vt 0.375000 0.250000
vt 0.375000 0.000000
vt 0.375000 0.238285
vt 0.375000 0.016647
vt 0.625000 0.016647
vt 0.625000 0.238285
vt 0.331108 0.205109
vt 0.169490 0.205109
vt 0.169490 0.048187
vt 0.125000 0.000000
vt 0.125000 0.250000
vt 0.466481 0.250000
vt 0.466481 0.000000
vt 0.331108 0.048187
vt 0.399090 0.991507
vt 0.375000 1.000000
vt 0.875000 0.016647
vt 0.860877 0.053262
vt 0.812640 0.053262
vt 0.795835 0.053262
vt 0.712800 0.053262
vt 0.697492 0.053262
vt 0.649255 0.053262
vt 0.649255 0.211313
vt 0.697492 0.211313
vt 0.712800 0.211313
vt 0.795835 0.211313
vt 0.812640 0.211313
vt 0.860877 0.211313
vt 0.875000 0.238285
vt 0.375000 0.750000
vt 0.625000 0.750000
vt 0.625000 1.000000
vt 0.375000 1.000000
vt 0.125000 0.000000
vt 0.125000 0.250000
vt 0.875000 0.250000
vt 0.875000 0.000000
vt 0.466481 1.000000
vt 0.466481 0.750000
vt 0.375000 0.750000
vt 0.375000 1.000000
vt 0.350745 0.211313
vt 0.350745 0.053262
vt 0.302508 0.053262
vt 0.287200 0.053262
vt 0.204165 0.053262
vt 0.187360 0.053262
vt 0.139123 0.053262
vt 0.125000 0.016647
vt 0.590141 0.750000
vt 0.590141 1.000000
vt 0.625000 1.000000
vt 0.625000 0.750000
vt 0.625000 0.500000
vt 0.600910 0.491507
vt 0.125000 0.000000
vt 0.125000 0.250000
vt 0.584799 0.000000
vt 0.584799 0.250000
vt 0.625000 0.250000
vt 0.625000 0.000000
vt 0.584799 0.500000
vt 0.625000 0.500000
vt 0.625000 0.511715
vt 0.625000 0.733353
vt 0.375000 0.733353
vt 0.375000 0.511715
vt 0.875000 0.250000
vt 0.875000 0.000000
vt 0.584799 0.750000
vt 0.584799 1.000000
vt 0.625000 1.000000
vt 0.625000 0.750000
vt 0.125000 0.238285
vt 0.139123 0.211313
vt 0.187360 0.211313
vt 0.204165 0.211313
vt 0.287200 0.211313
vt 0.302508 0.211313
vn 0.000000 -1.000000 0.000000
vn 0.000000 -1.000000 0.000000
vn 0.000000 -1.000000 0.000000
vn 0.000000 -1.000000 0.000000
vn -1.000000 0.000000 0.000000
vn -1.000000 0.000000 0.000000
vn -1.000000 0.000000 0.000000
vn -1.000000 0.000000 0.000000
vn 0.000000 -1.000000 0.000000
vn 0.000000 -1.000000 0.000000
vn 0.000000 -1.000000 0.000000
vn 0.000000 -1.000000 0.000000
vn 0.000000 0.000000 -1.000000
vn 0.000000 0.000000 -1.000000
vn 0.000000 0.000000 -1.000000
vn 0.000000 0.000000 -1.000000
vn 0.000000 0.000000 -1.000000
vn 0.000000 0.000000 -1.000000
vn 0.000000 0.000000 -1.000000
vn 0.000000 0.000000 -1.000000
vn 0.000000 0.000000 1.000000
vn 0.000000 0.000000 1.000000
vn 0.000000 0.000000 1.000000
vn 0.000000 0.000000 1.000000
vn 0.000000 0.000000 1.000000
vn 0.000000 0.000000 1.000000
vn 0.000000 0.000000 1.000000
vn 0.000000 0.000000 1.000000
vn 0.000000 1.000000 0.000000
vn 0.000000 1.000000 0.000000
vn 0.000000 1.000000 0.000000
vn 0.000000 1.000000 0.000000
vn 0.000000 0.000000 1.000000
vn 0.000000 0.000000 1.000000
vn 0.000000 0.000000 1.000000
vn 0.000000 0.000000 1.000000
vn 0.000000 1.000000 0.000000
vn 0.000000 1.000000 0.000000
vn 0.000000 1.000000 0.000000
vn 0.000000 1.000000 0.000000
vn 1.000000 0.000000 0.000000
vn 1.000000 0.000000 0.000000
vn 1.000000 0.000000 0.000000
vn 1.000000 0.000000 0.000000
vn 0.000000 1.000000 0.000000
vn 0.000000 1.000000 0.000000
vn 0.000000 1.000000 0.000000
vn 0.000000 1.000000 0.000000
vn -1.000000 0.000000 0.000000
vn -1.000000 0.000000 0.000000
vn -1.000000 0.000000 0.000000
vn -1.000000 0.000000 0.000000
vn 0.000000 1.000000 -0.000000
vn 0.000000 1.000000 0.000000
vn 0.000000 1.000000 -0.000000
vn 0.000000 1.000000 -0.000000
vn 0.000000 1.000000 0.000000
vn 0.000000 1.000000 -0.000000
vn 0.000000 1.000000 0.000000
vn 0.000000 1.000000 0.000000
vn 0.000000 1.000000 0.000000
vn 0.000000 1.000000 0.000000
vn 1.000000 0.000000 0.000000
vn 1.000000 0.000000 0.000000
vn 1.000000 0.000000 0.000000
vn 1.000000 0.000000 0.000000
vn 0.000000 -1.000000 0.000000
vn 0.000000 -1.000000 0.000000
vn 0.000000 -1.000000 0.000000
vn 0.000000 -1.000000 0.000000
vn 0.000000 -1.000000 0.000000
vn 0.000000 -1.000000 0.000000
vn 0.000000 -1.000000 0.000000
vn 0.000000 -1.000000 0.000000
vn 0.000000 -1.000000 0.000000
vn 0.000000 -1.000000 0.000000
vn 0.000000 -1.000000 0.000000
vn 0.000000 -1.000000 0.000000
vn 0.000000 -1.000000 0.000000
vn 0.000000 -1.000000 0.000000
vn 0.000000 0.000000 -1.000000
vn 0.000000 0.000000 -1.000000
vn 0.000000 0.000000 -1.000000
vn 0.000000 0.000000 -1.000000
vn 0.000000 -1.000000 0.000000
vn 0.000000 -1.000000 0.000000
vn 0.000000 -1.000000 0.000000
vn 0.000000 -1.000000 0.000000
vn 0.000000 0.000000 -1.000000
vn 0.000000 0.000000 -1.000000
vn 0.000000 0.000000 -1.000000
vn 0.000000 0.000000 -1.000000
vn 0.000000 0.000000 -1.000000
vn 0.000000 0.000000 -1.000000
vn 0.000000 0.000000 -1.000000
vn 0.000000 0.000000 -1.000000
vn 1.000000 0.000000 0.000000
vn 1.000000 0.000000 0.000000
vn 1.000000 0.000000 0.000000
vn 1.000000 0.000000 0.000000
vn 0.000000 0.000000 1.000000
vn 0.000000 0.000000 1.000000
vn 0.000000 0.000000 1.000000
vn 0.000000 0.000000 1.000000
vn 0.000000 0.000000 1.000000
vn 0.000000 0.000000 1.000000
vn 0.000000 0.000000 1.000000
vn 0.000000 0.000000 1.000000
vn 0.000000 1.000000 0.000000
vn 0.000000 1.000000 0.000000
vn 0.000000 1.000000 0.000000
vn 0.000000 1.000000 0.000000
vn 1.000000 0.000000 0.000000
vn 1.000000 0.000000 0.000000
vn 1.000000 0.000000 0.000000
vn 1.000000 0.000000 0.000000
vn 0.000000 0.000000 1.000000
vn 0.000000 0.000000 1.000000
vn 0.000000 0.000000 1.000000
vn 0.000000 0.000000 1.000000
vn 1.000000 -0.000000 0.000000
vn 1.000000 0.000000 0.000000
vn 1.000000 -0.000000 0.000000
vn 1.000000 0.000000 0.000000
vn 1.000000 0.000000 0.000000
vn 1.000000 -0.000000 0.000000
vn 0.000000 -1.000000 0.000000
vn 0.000000 -1.000000 0.000000
vn 0.000000 -1.000000 0.000000
vn 0.000000 -1.000000 0.000000
vn 0.000000 0.000000 -1.000000
vn 0.000000 0.000000 -1.000000
vn 0.000000 0.000000 -1.000000
vn 0.000000 0.000000 -1.000000
vn 1.000000 -0.000000 0.000000
vn 1.000000 -0.000000 0.000000
vn 0.000000 0.000000 1.000000
vn 0.000000 0.000000 1.000000
vn 0.000000 0.000000 1.000000
vn 0.000000 0.000000 1.000000
vn 0.000000 -1.000000 0.000000
vn 0.000000 -1.000000 0.000000
vn 1.000000 -0.000000 0.000000
vn 1.000000 -0.000000 0.000000
vn 1.000000 -0.000000 0.000000
vn 1.000000 -0.000000 0.000000
vn 1.000000 -0.000000 0.000000
vn 1.000000 -0.000000 0.000000
vn 1.000000 -0.000000 0.000000
vn 1.000000 -0.000000 0.000000
vn 1.000000 -0.000000 0.000000
vn 1.000000 -0.000000 0.000000
vn 1.000000 0.000000 0.000000
vn 1.000000 0.000000 0.000000
vn 1.000000 0.000000 0.000000
vn 1.000000 0.000000 0.000000
vn 1.000000 0.000000 0.000000
vn 1.000000 0.000000 0.000000
vn 0.000000 -1.000000 0.000000
vn 0.000000 -1.000000 0.000000
vn 0.000000 -1.000000 0.000000
vn 0.000000 -1.000000 0.000000
vn 1.000000 0.000000 0.000000
vn 1.000000 0.000000 0.000000
vn 1.000000 0.000000 0.000000
vn 1.000000 0.000000 0.000000
vn -1.000000 0.000000 0.000000
vn -1.000000 0.000000 0.000000
vn -1.000000 0.000000 0.000000
vn -1.000000 0.000000 0.000000
vn 0.000000 1.000000 0.000000
vn 0.000000 1.000000 0.000000
vn 0.000000 1.000000 0.000000
vn 0.000000 1.000000 0.000000
vn 0.000000 0.000000 1.000000
vn 0.000000 0.000000 1.000000
vn 0.000000 0.000000 1.000000
vn 0.000000 0.000000 1.000000
vn -1.000000 0.000000 0.000000
vn -1.000000 -0.000000 0.000000
vn -1.000000 -0.000000 0.000000
vn -1.000000 -0.000000 0.000000
vn -1.000000 -0.000000 0.000000
vn -1.000000 -0.000000 0.000000
vn -1.000000 -0.000000 0.000000
vn -1.000000 0.000000 0.000000
vn -1.000000 -0.000000 0.000000
vn -1.000000 -0.000000 0.000000
vn 0.000000 1.000000 0.000000
vn 0.000000 1.000000 0.000000
vn 0.000000 1.000000 0.000000
vn 0.000000 1.000000 0.000000
vn 0.000000 1.000000 0.000000
vn 0.000000 1.000000 0.000000
vn -1.000000 0.000000 0.000000
vn -1.000000 0.000000 0.000000
vn -1.000000 0.000000 0.000000
vn -1.000000 0.000000 0.000000
vn 0.000000 0.000000 1.000000
vn 0.000000 0.000000 1.000000
vn 0.000000 0.000000 1.000000
vn 0.000000 0.000000 1.000000
vn 0.000000 0.000000 -1.000000
vn 0.000000 0.000000 -1.000000
vn 0.000000 0.000000 -1.000000
vn 0.000000 0.000000 -1.000000
vn 0.000000 0.000000 -1.000000
vn 0.000000 0.000000 -1.000000
vn 0.000000 0.000000 -1.000000
vn 0.000000 0.000000 -1.000000
vn 0.000000 -1.000000 0.000000
vn 0.000000 -1.000000 0.000000
vn 0.000000 -1.000000 0.000000
vn 0.000000 -1.000000 0.000000
vn 0.000000 0.000000 -1.000000
vn 0.000000 0.000000 -1.000000
vn 0.000000 0.000000 -1.000000
vn 0.000000 0.000000 -1.000000
vn -1.000000 0.000000 0.000000
vn -1.000000 0.000000 0.000000
vn -1.000000 0.000000 0.000000
vn -1.000000 0.000000 0.000000
vn 0.000000 1.000000 0.000000
vn 0.000000 1.000000 0.000000
vn 0.000000 1.000000 0.000000
vn 0.000000 1.000000 0.000000
vn 0.000000 0.000000 1.000000
vn 0.000000 0.000000 1.000000
vn 0.000000 0.000000 1.000000
vn 0.000000 0.000000 1.000000
vn 0.000000 0.000000 -1.000000
vn 0.000000 0.000000 -1.000000
vn 0.000000 0.000000 -1.000000
vn 0.000000 0.000000 -1.000000
vn -1.000000 0.000000 0.000000
vn -1.000000 0.000000 0.000000
vn -1.000000 0.000000 0.000000
vn -1.000000 0.000000 0.000000
vn -1.000000 0.000000 0.000000
vn -1.000000 0.000000 0.000000
s off
g pCube14
usemtl lambert4SG
f 1/1/1 2/2/2 3/3/3 4/4/4
f 5/5/5 6/6/6 7/7/7 8/8/8
f 9/9/9 10/10/10 11/11/11 12/12/12
f 10/10/13 13/13/14 14/14/15 11/11/16
f 15/15/17 1/1/18 4/4/19 16/16/20
f 17/17/21 18/18/22 19/19/23 20/20/24
f 21/21/25 22/22/26 23/23/27 24/24/28
f 22/22/29 25/25/30 26/26/31 23/23/32
f 27/27/33 28/28/34 29/29/35 30/30/36
f 31/31/37 17/17/38 20/20/39 32/32/40
f 33/33/41 34/34/42 35/35/43 36/36/44
f 37/37/45 27/27/46 30/30/47 38/38/48
f 26/39/49 39/40/50 24/41/51 23/42/52
s 1
f 40/43/53 36/36/54 41/44/55 42/45/56 43/46/57 44/47/58
s off
f 7/7/59 45/48/60 46/49/61 8/50/62
f 30/51/63 29/52/64 47/53/65 38/54/66
f 48/55/67 21/21/68 24/24/69 39/40/70
f 28/28/71 49/56/72 47/53/73 29/29/74
s 2
f 50/57/75 51/58/76 52/59/77 5/60/78 53/61/79 54/62/80
s off
f 25/63/81 48/55/82 39/40/83 26/39/84
f 18/18/85 55/64/86 56/65/87 19/19/88
f 49/56/89 37/66/90 38/54/91 47/53/92
f 55/64/93 31/67/94 32/68/95 56/65/96
f 54/69/97 53/70/98 46/71/99 45/48/100
f 57/72/101 58/73/102 59/74/103 60/75/104
f 61/76/105 33/33/106 36/36/107 40/43/108
f 62/77/109 57/72/110 60/75/111 63/78/112
f 60/79/113 59/80/114 64/81/115 63/82/116
f 65/83/117 42/84/118 41/85/119 50/86/120
s 3
f 49/87/121 28/88/122 27/89/123 20/90/124 19/91/125 56/65/126
s off
f 58/73/127 66/92/128 64/81/129 59/74/130
f 66/92/131 62/93/132 63/82/133 64/81/134
s 3
f 20/90/124 27/89/123 37/94/135 49/87/121 56/65/126 32/68/136
s off
f 6/6/137 54/69/138 45/48/139 7/7/140
s 2
f 5/60/78 52/59/77 65/95/141 50/57/75 54/62/80 6/96/142
s 4
f 50/86/143 41/85/144 67/97/145 68/98/146 13/99/147 17/100/148 31/101/149 57/102/150 62/103/151 66/104/152
f 50/86/143 66/104/152 58/105/153 57/102/150 31/101/149 55/106/154 18/107/155 17/100/148 13/99/147 10/108/156 9/109/157 68/98/146 67/97/145 51/110/158
s off
f 69/111/159 34/112/160 33/113/161 61/114/162
f 70/115/163 12/116/164 11/11/165 14/14/166
f 16/16/167 4/4/168 3/117/169 71/118/170
f 13/119/171 68/120/172 70/121/173 14/122/174
f 68/120/175 9/9/176 12/12/177 70/121/178
s 5
f 48/123/179 25/124/180 22/125/181 15/126/182 72/127/183 73/128/184 74/129/185 43/130/186 42/84/187 65/83/188
s off
f 72/131/189 15/132/190 16/133/191 71/134/192
s 1
f 36/36/54 35/135/193 44/47/58 43/46/57 67/136/194 41/44/55
s off
f 69/137/195 61/76/196 40/43/197 44/138/198
f 2/2/199 72/131/200 71/134/201 3/3/202
f 8/50/203 46/49/204 53/61/205 5/60/206
f 73/139/207 75/140/208 76/141/209 77/142/210
f 75/140/211 78/143/212 79/144/213 76/141/214
f 51/145/215 67/146/216 43/147/217 52/148/218
f 77/142/219 76/141/220 79/149/221 80/150/222
f 74/151/223 73/152/224 77/153/225 80/154/226
f 78/143/227 74/151/228 80/154/229 79/144/230
f 44/47/231 35/135/232 34/112/233 69/111/234
s 5
f 52/155/235 43/130/186 74/129/185 78/156/236 75/157/237 73/128/184 72/127/183 2/158/238 1/159/239 15/126/182 22/125/181 21/160/240 48/123/179 65/83/188
