# This file uses centimeters as units for non-parametric coordinates.

mtllib Escritorio.mtl
g default
v -9.097269 2.681915 1.347580
v -9.087568 2.681915 0.037784
v -9.075001 2.681915 0.037878
v -9.084702 2.681915 1.347673
v -9.255325 2.798098 -1.356009
v -9.286660 2.798098 2.874942
v -9.286660 2.878225 2.874942
v -9.255325 2.878226 -1.356009
v -7.588179 2.681915 -0.977131
v -7.593814 2.681915 -0.216249
v -7.626796 2.681915 -0.216494
v -7.621161 2.681915 -0.977376
v -7.593814 2.001082 -0.216249
v -7.626796 2.001082 -0.216494
v -9.097269 2.001082 1.347580
v -9.084702 2.001082 1.347673
v -7.595777 2.001082 0.048833
v -7.595777 2.681915 0.048833
v -7.628759 2.681915 0.048589
v -7.628759 2.001082 0.048589
v -9.099057 2.681915 1.589052
v -9.099057 2.001082 1.589052
v -9.062570 2.001082 1.589322
v -9.062569 2.681915 1.589322
v -9.104692 2.001082 2.349934
v -9.068205 2.001082 2.350204
v -7.630486 2.132311 0.281681
v -7.630486 2.559661 0.281681
v -7.703330 2.559661 0.281141
v -7.703330 2.132311 0.281141
v -7.605478 2.001082 1.358628
v -7.638460 2.001082 1.358384
v -7.438732 1.763228 2.888628
v -7.407397 1.763229 -1.342323
v -7.407397 1.843356 -1.342323
v -7.438732 1.843356 2.888628
v -7.636757 2.132311 1.128428
v -7.709601 2.132311 1.127888
v -9.068205 2.681915 2.350204
v -9.286661 1.843357 2.874942
v -7.615735 1.843356 2.743582
v -9.107526 1.843357 2.732533
v -9.078320 1.843357 -1.210961
v -9.255325 1.843357 -1.356009
v -7.438732 2.878225 2.888628
v -7.407397 2.878225 -1.342323
v -7.709601 2.559661 1.127888
v -9.104692 2.681915 2.349934
v -7.636757 2.559661 1.128428
v -7.615735 2.798097 2.743582
v -7.586529 2.798097 -1.199912
v -9.078320 2.798098 -1.210961
v -7.407397 2.798097 -1.342323
v -7.438732 2.798097 2.888628
v -7.605478 2.681915 1.358628
v -7.638460 2.681915 1.358384
v -7.607266 2.001082 1.600100
v -7.607266 2.681915 1.600100
v -7.640248 2.681915 1.599856
v -7.640248 2.001082 1.599856
v -9.286661 1.763229 2.874942
v -7.612901 2.001082 2.360982
v -7.645884 2.001082 2.360738
v -7.645883 2.681915 2.360738
v -9.107526 2.798098 2.732533
v -7.612901 2.681915 2.360982
v -7.586529 1.843356 -1.199912
v -7.588179 2.001082 -0.977131
v -9.255325 1.763229 -1.356009
v -7.621161 2.001082 -0.977376
v -9.075002 2.001082 0.037877
v -9.087568 2.001082 0.037784
v -9.085605 2.001082 -0.227298
v -9.079970 2.001082 -0.988180
v -9.085605 2.681915 -0.227298
v -9.071112 2.681915 -0.227190
v -9.071112 2.001082 -0.227190
v -9.079970 2.681916 -0.988180
v -9.065477 2.681916 -0.988072
v -9.065477 2.001082 -0.988072
vt 0.361309 0.585366
vt 0.670884 0.585366
vt 0.670884 0.585366
vt 0.361309 0.585366
vt 1.000000 0.612825
vt 0.000000 0.612825
vt 0.000000 0.631763
vt 1.000000 0.631763
vt 0.913374 0.585366
vt 0.733537 0.585366
vt 0.733537 0.585366
vt 0.913374 0.585366
vt 0.733537 0.424453
vt 0.733537 0.424453
vt 0.361309 0.424453
vt 0.361309 0.424453
vt 0.670884 0.424453
vt 0.670884 0.585366
vt 0.670884 0.585366
vt 0.670884 0.424453
vt 0.304237 0.585366
vt 0.304237 0.424453
vt 0.304237 0.424453
vt 0.304237 0.585366
vt 0.124399 0.424453
vt 0.124399 0.424453
vt 0.615792 0.455468
vt 0.615792 0.556471
vt 0.615792 0.556471
vt 0.615792 0.455468
vt 0.361309 0.424453
vt 0.361309 0.424453
vt 0.000000 0.368237
vt 1.000000 0.368237
vt 1.000000 0.387175
vt 0.000000 0.387175
vt 0.415660 0.455468
vt 0.415660 0.455468
vt 0.124399 0.585366
vt 0.000000 0.387175
vt 0.033971 0.387175
vt 0.033971 0.387175
vt 0.966029 0.387175
vt 1.000000 0.387175
vt 0.000000 0.631763
vt 1.000000 0.631763
vt 0.415660 0.556471
vt 0.124399 0.585366
vt 0.415660 0.556471
vt 0.033971 0.612825
vt 0.966029 0.612825
vt 0.966029 0.612825
vt 1.000000 0.612825
vt 0.000000 0.612825
vt 0.361309 0.585366
vt 0.361309 0.585366
vt 0.304236 0.424453
vt 0.304236 0.585366
vt 0.304237 0.585366
vt 0.304237 0.424453
vt 0.000000 0.368237
vt 0.124399 0.424453
vt 0.124399 0.424453
vt 0.124399 0.585366
vt 0.033971 0.612825
vt 0.124399 0.585366
vt 0.966029 0.387175
vt 0.913374 0.424453
vt 1.000000 0.368237
vt 0.913374 0.424453
vt 0.670884 0.424453
vt 0.670884 0.424453
vt 0.733537 0.424453
vt 0.913374 0.424453
vt 0.733537 0.585366
vt 0.733537 0.585366
vt 0.733537 0.424453
vt 0.913374 0.585366
vt 0.913374 0.585366
vt 0.913374 0.424453
vn -0.000000 -1.000000 -0.000000
vn -0.000000 -1.000000 -0.000000
vn -0.000000 -1.000000 -0.000000
vn -0.000000 -1.000000 -0.000000
vn -0.999973 0.000000 -0.007406
vn -0.999973 0.000000 -0.007406
vn -0.999973 0.000000 -0.007406
vn -0.999973 0.000000 -0.007406
vn -0.000000 -1.000000 -0.000000
vn -0.000000 -1.000000 -0.000000
vn -0.000000 -1.000000 -0.000000
vn -0.000000 -1.000000 -0.000000
vn 0.007406 0.000000 -0.999973
vn 0.007406 0.000000 -0.999973
vn 0.007406 0.000000 -0.999973
vn 0.007406 0.000000 -0.999973
vn 0.007406 0.000000 -0.999973
vn 0.007406 0.000000 -0.999973
vn 0.007406 0.000000 -0.999973
vn 0.007406 0.000000 -0.999973
vn -0.007406 -0.000000 0.999973
vn -0.007406 -0.000000 0.999973
vn -0.007406 -0.000000 0.999973
vn -0.007406 -0.000000 0.999973
vn -0.007406 -0.000000 0.999973
vn -0.007406 -0.000000 0.999973
vn -0.007406 -0.000000 0.999973
vn -0.007406 -0.000000 0.999973
vn 0.000000 1.000000 0.000000
vn 0.000000 1.000000 0.000000
vn 0.000000 1.000000 0.000000
vn 0.000000 1.000000 0.000000
vn -0.007406 -0.000000 0.999973
vn -0.007406 -0.000000 0.999973
vn -0.007406 -0.000000 0.999973
vn -0.007406 -0.000000 0.999973
vn 0.000000 1.000000 0.000000
vn 0.000000 1.000000 0.000000
vn 0.000000 1.000000 0.000000
vn 0.000000 1.000000 0.000000
vn 0.999973 -0.000000 0.007406
vn 0.999973 -0.000000 0.007406
vn 0.999973 -0.000000 0.007406
vn 0.999973 -0.000000 0.007406
vn 0.000000 1.000000 0.000000
vn 0.000000 1.000000 0.000000
vn 0.000000 1.000000 0.000000
vn 0.000000 1.000000 0.000000
vn -0.999973 0.000000 -0.007406
vn -0.999973 0.000000 -0.007406
vn -0.999973 0.000000 -0.007406
vn -0.999973 0.000000 -0.007406
vn 0.000000 1.000000 0.000000
vn 0.000000 1.000000 0.000000
vn 0.000000 1.000000 0.000000
vn 0.000000 1.000000 0.000000
vn 0.000000 1.000000 0.000000
vn 0.000000 1.000000 0.000000
vn 0.000000 1.000000 0.000000
vn 0.000000 1.000000 0.000000
vn 0.000000 1.000000 0.000000
vn 0.000000 1.000000 0.000000
vn 0.999973 -0.000000 0.007406
vn 0.999973 -0.000000 0.007406
vn 0.999973 -0.000000 0.007406
vn 0.999973 -0.000000 0.007406
vn -0.000000 -1.000000 -0.000000
vn -0.000000 -1.000000 -0.000000
vn -0.000000 -1.000000 -0.000000
vn -0.000000 -1.000000 -0.000000
vn -0.000000 -1.000000 -0.000000
vn -0.000000 -1.000000 -0.000000
vn -0.000000 -1.000000 -0.000000
vn -0.000000 -1.000000 -0.000000
vn -0.000000 -1.000000 -0.000000
vn -0.000000 -1.000000 -0.000000
vn -0.000000 -1.000000 -0.000000
vn -0.000000 -1.000000 -0.000000
vn -0.000000 -1.000000 -0.000000
vn -0.000000 -1.000000 -0.000000
vn 0.007406 0.000000 -0.999973
vn 0.007406 0.000000 -0.999973
vn 0.007406 0.000000 -0.999973
vn 0.007406 0.000000 -0.999973
vn -0.000000 -1.000000 -0.000000
vn -0.000000 -1.000000 -0.000000
vn -0.000000 -1.000000 -0.000000
vn -0.000000 -1.000000 -0.000000
vn 0.007406 0.000000 -0.999973
vn 0.007406 0.000000 -0.999973
vn 0.007406 0.000000 -0.999973
vn 0.007406 0.000000 -0.999973
vn 0.007406 0.000000 -0.999973
vn 0.007406 0.000000 -0.999973
vn 0.007406 0.000000 -0.999973
vn 0.007406 0.000000 -0.999973
vn 0.999973 -0.000000 0.007406
vn 0.999973 -0.000000 0.007406
vn 0.999973 -0.000000 0.007406
vn 0.999973 -0.000000 0.007406
vn -0.007406 -0.000000 0.999973
vn -0.007406 -0.000000 0.999973
vn -0.007406 -0.000000 0.999973
vn -0.007406 -0.000000 0.999973
vn -0.007406 -0.000000 0.999973
vn -0.007406 -0.000000 0.999973
vn -0.007406 -0.000000 0.999973
vn -0.007406 -0.000000 0.999973
vn 0.000000 1.000000 0.000000
vn 0.000000 1.000000 0.000000
vn 0.000000 1.000000 0.000000
vn 0.000000 1.000000 0.000000
vn 0.999973 -0.000000 0.007406
vn 0.999973 -0.000000 0.007406
vn 0.999973 -0.000000 0.007406
vn 0.999973 -0.000000 0.007406
vn -0.007406 -0.000000 0.999973
vn -0.007406 -0.000000 0.999973
vn -0.007406 -0.000000 0.999973
vn -0.007406 -0.000000 0.999973
vn 0.999973 -0.000001 0.007406
vn 0.999973 -0.000001 0.007406
vn 0.999973 -0.000000 0.007406
vn 0.999973 -0.000001 0.007406
vn 0.999973 -0.000001 0.007406
vn 0.999973 -0.000000 0.007406
vn -0.000000 -1.000000 -0.000000
vn -0.000000 -1.000000 -0.000000
vn -0.000000 -1.000000 -0.000000
vn -0.000000 -1.000000 -0.000000
vn 0.007406 0.000000 -0.999973
vn 0.007406 0.000000 -0.999973
vn 0.007406 0.000000 -0.999973
vn 0.007406 0.000000 -0.999973
vn 0.999973 -0.000001 0.007406
vn 0.999973 -0.000000 0.007406
vn 0.999973 -0.000000 0.007406
vn 0.999973 -0.000001 0.007406
vn 0.999973 -0.000000 0.007406
vn 0.999973 -0.000000 0.007406
vn -0.007406 -0.000000 0.999973
vn -0.007406 -0.000000 0.999973
vn -0.007406 -0.000000 0.999973
vn -0.007406 -0.000000 0.999973
vn -0.000000 -1.000000 -0.000000
vn -0.000000 -1.000000 -0.000000
vn -0.000000 -1.000000 -0.000000
vn -0.000000 -1.000000 -0.000000
vn -0.000000 -1.000000 -0.000000
vn -0.000000 -1.000000 -0.000000
vn 0.999973 0.000001 0.007406
vn 0.999973 0.000002 0.007406
vn 0.999973 0.000001 0.007406
vn 0.999973 0.000001 0.007406
vn 0.999973 0.000001 0.007406
vn 0.999973 0.000001 0.007406
vn 0.999973 0.000001 0.007406
vn 0.999973 0.000001 0.007406
vn 0.999973 0.000002 0.007406
vn 0.999973 0.000001 0.007406
vn 0.999973 0.000001 0.007406
vn 0.999973 0.000001 0.007406
vn 0.999973 -0.000000 0.007406
vn 0.999973 0.000001 0.007406
vn 0.999973 0.000001 0.007406
vn 0.999973 -0.000000 0.007406
vn 0.999973 -0.000000 0.007406
vn 0.999973 0.000001 0.007406
vn 0.999973 0.000001 0.007406
vn 0.999973 -0.000000 0.007406
vn 0.999973 -0.000000 0.007406
vn 0.999973 0.000001 0.007406
vn 0.999973 0.000001 0.007406
vn 0.999973 -0.000000 0.007406
vn -0.000000 -1.000000 -0.000000
vn -0.000000 -1.000000 -0.000000
vn -0.000000 -1.000000 -0.000000
vn -0.000000 -1.000000 -0.000000
vn 0.999973 -0.000000 0.007406
vn 0.999973 -0.000000 0.007406
vn 0.999973 -0.000000 0.007406
vn 0.999973 -0.000000 0.007406
vn -0.999973 0.000000 -0.007406
vn -0.999973 0.000000 -0.007406
vn -0.999973 0.000000 -0.007406
vn -0.999973 0.000000 -0.007406
vn 0.000000 1.000000 0.000000
vn 0.000000 1.000000 0.000000
vn 0.000000 1.000000 0.000000
vn 0.000000 1.000000 0.000000
vn -0.007406 -0.000000 0.999973
vn -0.007406 -0.000000 0.999973
vn -0.007406 -0.000000 0.999973
vn -0.007406 -0.000000 0.999973
vn -0.999973 -0.000004 -0.007406
vn -0.999973 -0.000002 -0.007406
vn -0.999973 -0.000003 -0.007406
vn -0.999973 -0.000003 -0.007406
vn -0.999973 -0.000003 -0.007406
vn -0.999973 -0.000003 -0.007406
vn -0.999973 -0.000003 -0.007406
vn -0.999973 -0.000004 -0.007406
vn -0.999973 -0.000002 -0.007406
vn -0.999973 -0.000003 -0.007406
vn 0.000000 1.000000 0.000000
vn 0.000000 1.000000 0.000000
vn 0.000000 1.000000 0.000000
vn 0.000000 1.000000 0.000000
vn 0.000000 1.000000 0.000000
vn 0.000000 1.000000 0.000000
vn 0.000000 1.000000 0.000000
vn 0.000000 1.000000 0.000000
vn 0.000000 1.000000 0.000000
vn 0.000000 1.000000 0.000000
vn -0.999973 0.000000 -0.007406
vn -0.999973 0.000000 -0.007406
vn -0.999973 0.000000 -0.007406
vn -0.999973 0.000000 -0.007406
vn -0.007406 -0.000000 0.999973
vn -0.007406 -0.000000 0.999973
vn -0.007406 -0.000000 0.999973
vn -0.007406 -0.000000 0.999973
vn 0.007406 0.000000 -0.999973
vn 0.007406 0.000000 -0.999973
vn 0.007406 0.000000 -0.999973
vn 0.007406 0.000000 -0.999973
vn 0.007406 0.000000 -0.999973
vn 0.007406 0.000000 -0.999973
vn 0.007406 0.000000 -0.999973
vn 0.007406 0.000000 -0.999973
vn -0.000000 -1.000000 -0.000000
vn -0.000000 -1.000000 -0.000000
vn -0.000000 -1.000000 -0.000000
vn -0.000000 -1.000000 -0.000000
vn 0.007406 0.000000 -0.999973
vn 0.007406 0.000000 -0.999973
vn 0.007406 0.000000 -0.999973
vn 0.007406 0.000000 -0.999973
vn -0.999973 0.000000 -0.007406
vn -0.999973 0.000000 -0.007406
vn -0.999973 0.000000 -0.007406
vn -0.999973 0.000000 -0.007406
vn 0.000000 1.000000 0.000000
vn 0.000000 1.000000 0.000000
vn 0.000000 1.000000 0.000000
vn 0.000000 1.000000 0.000000
vn -0.007406 -0.000000 0.999973
vn -0.007406 -0.000000 0.999973
vn -0.007406 -0.000000 0.999973
vn -0.007406 -0.000000 0.999973
vn 0.007406 0.000000 -0.999973
vn 0.007406 0.000000 -0.999973
vn 0.007406 0.000000 -0.999973
vn 0.007406 0.000000 -0.999973
vn -0.999973 -0.000004 -0.007406
vn -0.999973 -0.000004 -0.007406
vn -0.999973 -0.000003 -0.007406
vn -0.999973 -0.000004 -0.007406
vn -0.999973 -0.000004 -0.007406
vn -0.999973 -0.000003 -0.007406
vn -0.999973 -0.000003 -0.007406
vn -0.999973 -0.000004 -0.007406
vn -0.999973 -0.000004 -0.007406
vn -0.999973 -0.000003 -0.007406
vn -0.999973 -0.000003 -0.007406
vn -0.999973 -0.000004 -0.007406
vn -0.999973 -0.000004 -0.007406
vn -0.999973 -0.000003 -0.007406
s off
g pasted__pasted__pCube14 pasted__group group
usemtl pasted__pasted__phong1SG
f 1/1/1 2/2/2 3/3/3 4/4/4
f 5/5/5 6/6/6 7/7/7 8/8/8
f 9/9/9 10/10/10 11/11/11 12/12/12
f 10/10/13 13/13/14 14/14/15 11/11/16
f 15/15/17 1/1/18 4/4/19 16/16/20
f 17/17/21 18/18/22 19/19/23 20/20/24
f 21/21/25 22/22/26 23/23/27 24/24/28
f 22/22/29 25/25/30 26/26/31 23/23/32
f 27/27/33 28/28/34 29/29/35 30/30/36
f 31/31/37 17/17/38 20/20/39 32/32/40
f 33/33/41 34/34/42 35/35/43 36/36/44
f 37/37/45 27/27/46 30/30/47 38/38/48
f 26/26/49 39/39/50 24/24/51 23/23/52
f 40/40/53 36/36/54 41/41/55 42/42/56 43/43/57 44/44/58
f 7/7/59 45/45/60 46/46/61 8/8/62
f 30/30/63 29/29/64 47/47/65 38/38/66
f 48/48/67 21/21/68 24/24/69 39/39/70
f 28/28/71 49/49/72 47/47/73 29/29/74
f 50/50/75 51/51/76 52/52/77 5/5/78 53/53/79 54/54/80
f 25/25/81 48/48/82 39/39/83 26/26/84
f 18/18/85 55/55/86 56/56/87 19/19/88
f 49/49/89 37/37/90 38/38/91 47/47/92
f 55/55/93 31/31/94 32/32/95 56/56/96
f 54/54/97 53/53/98 46/46/99 45/45/100
f 57/57/101 58/58/102 59/59/103 60/60/104
f 61/61/105 33/33/106 36/36/107 40/40/108
f 62/62/109 57/57/110 60/60/111 63/63/112
f 60/60/113 59/59/114 64/64/115 63/63/116
f 65/65/117 42/42/118 41/41/119 50/50/120
f 49/49/121 28/28/122 27/27/123 20/20/124 19/19/125 56/56/126
f 58/58/127 66/66/128 64/64/129 59/59/130
f 66/66/131 62/62/132 63/63/133 64/64/134
f 20/20/135 27/27/136 37/37/137 49/49/138 56/56/139 32/32/140
f 6/6/141 54/54/142 45/45/143 7/7/144
f 5/5/145 52/52/146 65/65/147 50/50/148 54/54/149 6/6/150
f 50/50/151 41/41/152 67/67/153 68/68/154 13/13/155 17/17/156 31/31/157 57/57/158 62/62/159 66/66/160
f 50/50/161 66/66/162 58/58/163 57/57/164 31/31/165 55/55/166 18/18/167 17/17/168 13/13/169 10/10/170 9/9/171 68/68/172 67/67/173 51/51/174
f 69/69/175 34/34/176 33/33/177 61/61/178
f 70/70/179 12/12/180 11/11/181 14/14/182
f 16/16/183 4/4/184 3/3/185 71/71/186
f 13/13/187 68/68/188 70/70/189 14/14/190
f 68/68/191 9/9/192 12/12/193 70/70/194
f 48/48/195 25/25/196 22/22/197 15/15/198 72/72/199 73/73/200 74/74/201 43/43/202 42/42/203 65/65/204
f 72/72/205 15/15/206 16/16/207 71/71/208
f 36/36/209 35/35/210 44/44/211 43/43/212 67/67/213 41/41/214
f 69/69/215 61/61/216 40/40/217 44/44/218
f 2/2/219 72/72/220 71/71/221 3/3/222
f 8/8/223 46/46/224 53/53/225 5/5/226
f 73/73/227 75/75/228 76/76/229 77/77/230
f 75/75/231 78/78/232 79/79/233 76/76/234
f 51/51/235 67/67/236 43/43/237 52/52/238
f 77/77/239 76/76/240 79/79/241 80/80/242
f 74/74/243 73/73/244 77/77/245 80/80/246
f 78/78/247 74/74/248 80/80/249 79/79/250
f 44/44/251 35/35/252 34/34/253 69/69/254
f 52/52/255 43/43/256 74/74/257 78/78/258 75/75/259 73/73/260 72/72/261 2/2/262 1/1/263 15/15/264 22/22/265 21/21/266 48/48/267 65/65/268
